<?xml version="1.0" encoding="UTF-8"?>
<svg width="800pt" height="450pt" version="1.1" viewBox="0 0 700 510" xmlns="http://www.w3.org/2000/svg" xmlns:xlink="http://www.w3.org/1999/xlink">
 <g>
  <path fill='#E31B6D' d="m334.69 56.082c2.918-5.7734 8.8438-9.4141 15.309-9.4141s12.391 3.6406 15.309 9.4141l64.727 128.03c1.6914 3.3594 4.9102 5.6914 8.6211 6.2617l141.77 21.992c6.3906 0.99219 11.676 5.4961 13.672 11.656 2.0078 6.1484 0.375 12.902-4.2227 17.453l-101.76 101.12c-2.6719 2.6602-3.8945 6.4297-3.3008 10.141l22.891 141.63c1.0391 6.3828-1.6094 12.809-6.8477 16.602-5.2266 3.8047-12.16 4.3398-17.91 1.3867l-127.62-65.531c-3.3477-1.7266-7.3164-1.7266-10.664 0l-127.62 65.531c-5.75 2.9531-12.684 2.418-17.91-1.3867-5.2383-3.793-7.8867-10.219-6.8477-16.602l22.891-141.63c0.59375-3.7109-0.62891-7.4805-3.3008-10.141l-101.76-101.12c-4.5977-4.5508-6.2305-11.305-4.2227-17.453 1.9961-6.1602 7.2812-10.664 13.672-11.656 0 0 141.77-21.992 141.77-21.992 3.7109-0.57031 6.9297-2.9023 8.6211-6.2617l64.727-128.03z" fill-rule="evenodd"/>
 </g>
</svg>
